# xmcd CD database file
#
# Track frame offsets:
#	150
#	21535
#	45246
#	66582
#	84841
#	108141
#	130100
#	156775
#	181223
#	201472
#	227011
#	247615
#
# Disc length: 3581 seconds
#
# Revision: 1
# Processed by: cddbd v1.5.2PL0 Copyright (c) Steve Scherf et al.
# Submitted via: CDex 1.51
#
DISCID=920dfb0c
DTITLE=Shaun Paul - Endless Possibilities
DYEAR=2002
DGENRE=New Age
TTITLE0=Pure Inspiration
TTITLE1=Drums Of Autumn
TTITLE2=Wings Of A Dove
TTITLE3=Journey's Dawn
TTITLE4=Truth Of Being
TTITLE5=Beyond Limits
TTITLE6=Sun Showers
TTITLE7=Misted Waterfalls
TTITLE8=Where It Takes You
TTITLE9=The Power To Imagine
TTITLE10=Colorado Journey
TTITLE11=The Exotic Cello
EXTD=YEAR: 2002
EXTT0=
EXTT1=
EXTT2=
EXTT3=
EXTT4=
EXTT5=
EXTT6=
EXTT7=
EXTT8=
EXTT9=
EXTT10=
EXTT11=
PLAYORDER=
